<mxfile host="65bd71144e">
    <diagram id="7iY3Qc-5ksypBvQijTIl" name="Page-1">
        <mxGraphModel dx="877" dy="785" grid="0" gridSize="10" guides="1" tooltips="1" connect="1" arrows="1" fold="1" page="0" pageScale="1" pageWidth="850" pageHeight="1100" math="0" shadow="0">
            <root>
                <mxCell id="0"/>
                <mxCell id="1" parent="0"/>
                <mxCell id="6" style="edgeStyle=none;html=1;entryX=0.007;entryY=0.614;entryDx=0;entryDy=0;entryPerimeter=0;" parent="1" source="2" target="7" edge="1">
                    <mxGeometry relative="1" as="geometry">
                        <mxPoint x="159" y="173.43884892086328" as="targetPoint"/>
                    </mxGeometry>
                </mxCell>
                <mxCell id="9" style="edgeStyle=none;html=1;entryX=0;entryY=0.5;entryDx=0;entryDy=0;" parent="1" source="2" target="10" edge="1">
                    <mxGeometry relative="1" as="geometry">
                        <mxPoint x="159" y="280.48920863309354" as="targetPoint"/>
                    </mxGeometry>
                </mxCell>
                <mxCell id="12" style="edgeStyle=none;html=1;entryX=0;entryY=0.5;entryDx=0;entryDy=0;" parent="1" source="2" target="11" edge="1">
                    <mxGeometry relative="1" as="geometry"/>
                </mxCell>
                <mxCell id="23" style="edgeStyle=none;html=1;entryX=0;entryY=0.5;entryDx=0;entryDy=0;" parent="1" source="2" target="22" edge="1">
                    <mxGeometry relative="1" as="geometry"/>
                </mxCell>
                <mxCell id="2" value="Gerente" style="shape=umlActor;verticalLabelPosition=bottom;verticalAlign=top;html=1;" parent="1" vertex="1">
                    <mxGeometry x="20" y="238" width="30" height="60" as="geometry"/>
                </mxCell>
                <mxCell id="7" value="Ver reportes" style="ellipse;whiteSpace=wrap;html=1;" parent="1" vertex="1">
                    <mxGeometry x="174" y="129" width="140" height="70" as="geometry"/>
                </mxCell>
                <mxCell id="10" value="Ver clientes" style="ellipse;whiteSpace=wrap;html=1;" parent="1" vertex="1">
                    <mxGeometry x="174" y="314" width="140" height="70" as="geometry"/>
                </mxCell>
                <mxCell id="11" value="Ver aserores de credito" style="ellipse;whiteSpace=wrap;html=1;" parent="1" vertex="1">
                    <mxGeometry x="181" y="406" width="140" height="70" as="geometry"/>
                </mxCell>
                <mxCell id="13" value="Total solicitudes de prestamos anual, mensual" style="ellipse;whiteSpace=wrap;html=1;" parent="1" vertex="1">
                    <mxGeometry x="430" y="109" width="140" height="70" as="geometry"/>
                </mxCell>
                <mxCell id="15" value="Incluye" style="endArrow=block;endSize=16;endFill=0;html=1;dashed=1;entryX=0;entryY=0.5;entryDx=0;entryDy=0;" parent="1" target="13" edge="1">
                    <mxGeometry width="160" relative="1" as="geometry">
                        <mxPoint x="312" y="166" as="sourcePoint"/>
                        <mxPoint x="391.15999999999985" y="130.9999999999999" as="targetPoint"/>
                    </mxGeometry>
                </mxCell>
                <mxCell id="16" value="Total dinero prestado" style="ellipse;whiteSpace=wrap;html=1;" parent="1" vertex="1">
                    <mxGeometry x="430" y="202" width="140" height="70" as="geometry"/>
                </mxCell>
                <mxCell id="17" value="Incluye" style="endArrow=block;endSize=16;endFill=0;html=1;dashed=1;entryX=0;entryY=0.5;entryDx=0;entryDy=0;exitX=0.971;exitY=0.657;exitDx=0;exitDy=0;exitPerimeter=0;" parent="1" source="7" target="16" edge="1">
                    <mxGeometry width="160" relative="1" as="geometry">
                        <mxPoint x="322" y="176" as="sourcePoint"/>
                        <mxPoint x="440" y="154" as="targetPoint"/>
                    </mxGeometry>
                </mxCell>
                <mxCell id="18" value="&lt;div&gt;AprobaciÃ³n de&lt;/div&gt;&lt;div&gt;prestamos&lt;/div&gt;" style="ellipse;whiteSpace=wrap;html=1;" parent="1" vertex="1">
                    <mxGeometry x="438" y="312" width="140" height="70" as="geometry"/>
                </mxCell>
                <mxCell id="19" value="Incluye" style="endArrow=block;endSize=16;endFill=0;html=1;dashed=1;exitX=0.979;exitY=0.729;exitDx=0;exitDy=0;entryX=0;entryY=0.5;entryDx=0;entryDy=0;exitPerimeter=0;" parent="1" source="22" target="18" edge="1">
                    <mxGeometry width="160" relative="1" as="geometry">
                        <mxPoint x="380.99999999999994" y="434" as="sourcePoint"/>
                        <mxPoint x="494.94" y="353" as="targetPoint"/>
                    </mxGeometry>
                </mxCell>
                <mxCell id="22" value="Ver solicitudes de prestamos" style="ellipse;whiteSpace=wrap;html=1;" parent="1" vertex="1">
                    <mxGeometry x="170" y="222" width="140" height="70" as="geometry"/>
                </mxCell>
                <mxCell id="24" value="Incluye" style="endArrow=block;endSize=16;endFill=0;html=1;dashed=1;exitX=0.957;exitY=0.229;exitDx=0;exitDy=0;exitPerimeter=0;entryX=0.021;entryY=0.629;entryDx=0;entryDy=0;entryPerimeter=0;" edge="1" parent="1" source="7" target="25">
                    <mxGeometry width="160" relative="1" as="geometry">
                        <mxPoint x="306" y="137" as="sourcePoint"/>
                        <mxPoint x="424" y="89" as="targetPoint"/>
                    </mxGeometry>
                </mxCell>
                <mxCell id="25" value="Total clientes &lt;br&gt;registrados" style="ellipse;whiteSpace=wrap;html=1;" vertex="1" parent="1">
                    <mxGeometry x="428" y="23" width="140" height="70" as="geometry"/>
                </mxCell>
            </root>
        </mxGraphModel>
    </diagram>
</mxfile>